<?xml version="1.0" ?><svg height="24px" version="1.1" viewBox="0 0 24 24" width="24px" xmlns="http://www.w3.org/2000/svg" xmlns:sketch="http://www.bohemiancoding.com/sketch/ns" xmlns:xlink="http://www.w3.org/1999/xlink"><title/><desc/><defs/><g fill="none" fill-rule="evenodd" id="miu" stroke="none" stroke-width="1"><g id="Artboard-1" transform="translate(-575.000000, -191.000000)"><g id="slice" transform="translate(215.000000, 119.000000)"/><path d="M576,202.5 C576,196.148725 581.148725,191 587.5,191 C593.851275,191 599,196.148725 599,202.5 C599,208.851275 593.851275,214 587.5,214 C581.148725,214 576,208.851275 576,202.5 Z M598,202.5 C598,196.70101 593.29899,192 587.5,192 C581.70101,192 577,196.70101 577,202.5 C577,208.29899 581.70101,213 587.5,213 C593.29899,213 598,208.29899 598,202.5 Z M593.5,204.5 C594.60457,204.5 595.5,203.60457 595.5,202.5 C595.5,201.39543 594.60457,200.5 593.5,200.5 C592.39543,200.5 591.5,201.39543 591.5,202.5 C591.5,203.60457 592.39543,204.5 593.5,204.5 Z M587.5,204.5 C588.60457,204.5 589.5,203.60457 589.5,202.5 C589.5,201.39543 588.60457,200.5 587.5,200.5 C586.39543,200.5 585.5,201.39543 585.5,202.5 C585.5,203.60457 586.39543,204.5 587.5,204.5 Z M581.5,204.5 C582.60457,204.5 583.5,203.60457 583.5,202.5 C583.5,201.39543 582.60457,200.5 581.5,200.5 C580.39543,200.5 579.5,201.39543 579.5,202.5 C579.5,203.60457 580.39543,204.5 581.5,204.5 Z" fill="#000000" id="circle-more-detail-outline-stroke"/></g></g></svg>